{
  "accessors": [
    {
      "bufferView": 2,
      "componentType": 5126,
      "count": 65532,
      "max": [
        15.59630012512207,
        47.739200592041016,
        24.292299270629883
      ],
      "min": [
        -15.607000350952148,
        0.06809999793767929,
        -23.239299774169922
      ],
      "type": "VEC3"
    },
    {
      "bufferView": 2,
      "byteOffset": 786384,
      "componentType": 5126,
      "count": 65532,
      "max": [
        0.9996430277824402,
        1.0,
        0.9998602271080017
      ],
      "min": [
        -0.9999628663063049,
        -1.0,
        -0.9998783469200134
      ],
      "type": "VEC3"
    },
    {
      "bufferView": 1,
      "componentType": 5126,
      "count": 65532,
      "max": [
        1.0,
        1.0
      ],
      "min": [
        0.0,
        0.0
      ],
      "type": "VEC2"
    },
    {
      "bufferView": 0,
      "componentType": 5125,
      "count": 380544,
      "type": "SCALAR"
    },
    {
      "bufferView": 2,
      "byteOffset": 1572768,
      "componentType": 5126,
      "count": 65532,
      "max": [
        15.638199806213379,
        47.73929977416992,
        24.493999481201172
      ],
      "min": [
        -15.622400283813477,
        19.526100158691406,
        -24.2903995513916
      ],
      "type": "VEC3"
    },
    {
      "bufferView": 2,
      "byteOffset": 2359152,
      "componentType": 5126,
      "count": 65532,
      "max": [
        0.999955415725708,
        0.9999998807907104,
        0.9999110102653503
      ],
      "min": [
        -0.9999686479568481,
        -0.99979567527771,
        -0.9996851086616516
      ],
      "type": "VEC3"
    },
    {
      "bufferView": 1,
      "byteOffset": 524256,
      "componentType": 5126,
      "count": 65532,
      "max": [
        1.0,
        1.0
      ],
      "min": [
        0.0,
        0.0
      ],
      "type": "VEC2"
    },
    {
      "bufferView": 0,
      "byteOffset": 1522176,
      "componentType": 5125,
      "count": 378597,
      "type": "SCALAR"
    },
    {
      "bufferView": 2,
      "byteOffset": 3145536,
      "componentType": 5126,
      "count": 43601,
      "max": [
        15.637100219726563,
        28.290300369262695,
        2.470099925994873
      ],
      "min": [
        -7.07919979095459,
        0.06809999793767929,
        -24.492000579833984
      ],
      "type": "VEC3"
    },
    {
      "bufferView": 2,
      "byteOffset": 3668748,
      "componentType": 5126,
      "count": 43601,
      "max": [
        0.999979555606842,
        0.9997934699058533,
        0.9992772340774536
      ],
      "min": [
        -0.999717652797699,
        -1.0,
        -0.9999704957008362
      ],
      "type": "VEC3"
    },
    {
      "bufferView": 1,
      "byteOffset": 1048512,
      "componentType": 5126,
      "count": 43601,
      "max": [
        1.0,
        1.0
      ],
      "min": [
        0.0,
        0.0
      ],
      "type": "VEC2"
    },
    {
      "bufferView": 0,
      "byteOffset": 3036564,
      "componentType": 5125,
      "count": 251385,
      "type": "SCALAR"
    },
    {
      "bufferView": 2,
      "byteOffset": 4191960,
      "componentType": 5126,
      "count": 637,
      "max": [
        1.702014684677124,
        1.7020145654678345,
        0.06655917316675186
      ],
      "min": [
        -1.7020145654678345,
        -1.702014684677124,
        -0.06656159460544586
      ],
      "type": "VEC3"
    },
    {
      "bufferView": 2,
      "byteOffset": 4199604,
      "componentType": 5126,
      "count": 637,
      "max": [
        1.0,
        1.0,
        0.9932330846786499
      ],
      "min": [
        -1.0,
        -1.0,
        -0.9932330846786499
      ],
      "type": "VEC3"
    },
    {
      "bufferView": 1,
      "byteOffset": 1397320,
      "componentType": 5126,
      "count": 637,
      "max": [
        1.0,
        1.0
      ],
      "min": [
        8.881784197001252e-16,
        2.220446049250313e-16
      ],
      "type": "VEC2"
    },
    {
      "bufferView": 0,
      "byteOffset": 4042104,
      "componentType": 5125,
      "count": 3456,
      "type": "SCALAR"
    },
    {
      "bufferView": 2,
      "byteOffset": 4207248,
      "componentType": 5126,
      "count": 615,
      "max": [
        0.09198974817991257,
        0.0633469820022583,
        0.07297693938016891
      ],
      "min": [
        0.07651299238204956,
        -0.21717670559883118,
        -0.06594382971525192
      ],
      "type": "VEC3"
    },
    {
      "bufferView": 2,
      "byteOffset": 4214628,
      "componentType": 5126,
      "count": 615,
      "max": [
        0.9999996423721313,
        0.9323012828826904,
        0.9201929569244385
      ],
      "min": [
        -0.7605093717575073,
        -0.8760139346122742,
        -0.9767502546310425
      ],
      "type": "VEC3"
    },
    {
      "bufferView": 1,
      "byteOffset": 1402416,
      "componentType": 5126,
      "count": 615,
      "max": [
        1.0000040531158447,
        1.0
      ],
      "min": [
        0.0,
        -1.617993950843811
      ],
      "type": "VEC2"
    },
    {
      "bufferView": 1,
      "byteOffset": 1407336,
      "componentType": 5126,
      "count": 615,
      "max": [
        0.0,
        1.0
      ],
      "min": [
        0.0,
        1.0
      ],
      "type": "VEC2"
    },
    {
      "bufferView": 0,
      "byteOffset": 4055928,
      "componentType": 5125,
      "count": 3033,
      "type": "SCALAR"
    },
    {
      "bufferView": 2,
      "byteOffset": 4222008,
      "componentType": 5126,
      "count": 18146,
      "max": [
        0.12642520666122437,
        0.2517191171646118,
        0.2529289126396179
      ],
      "min": [
        -0.10798850655555725,
        -0.25103428959846497,
        -0.2500495910644531
      ],
      "type": "VEC3"
    },
    {
      "bufferView": 2,
      "byteOffset": 4439760,
      "componentType": 5126,
      "count": 18146,
      "max": [
        0.9999994039535522,
        0.9998645782470703,
        0.9997186660766602
      ],
      "min": [
        -0.8698320984840393,
        -0.9999860525131226,
        -0.9999116659164429
      ],
      "type": "VEC3"
    },
    {
      "bufferView": 1,
      "byteOffset": 1412256,
      "componentType": 5126,
      "count": 18146,
      "max": [
        0.39544859528541565,
        0.39459270238876343
      ],
      "min": [
        0.3786066174507141,
        0.38429051637649536
      ],
      "type": "VEC2"
    },
    {
      "bufferView": 1,
      "byteOffset": 1557424,
      "componentType": 5126,
      "count": 18146,
      "max": [
        0.0,
        1.0
      ],
      "min": [
        0.0,
        1.0
      ],
      "type": "VEC2"
    },
    {
      "bufferView": 0,
      "byteOffset": 4068060,
      "componentType": 5125,
      "count": 49044,
      "type": "SCALAR"
    }
  ],
  "asset": {
    "extras": {
      "author": "Jupiter (https://sketchfab.com/jupiterus)",
      "license": "CC-BY-4.0 (http://creativecommons.org/licenses/by/4.0/)",
      "source": "https://sketchfab.com/3d-models/mercedes-benz-wheel-amg-monoblock-aero-2-cfdf7e25c5a94f36a213ab524abcb1e7",
      "title": "Mercedes-Benz Wheel AMG Monoblock Aero 2"
    },
    "generator": "Sketchfab-12.78.0",
    "version": "2.0"
  },
  "bufferViews": [
    {
      "buffer": 0,
      "byteLength": 4264236,
      "name": "floatBufferViews",
      "target": 34963
    },
    {
      "buffer": 0,
      "byteLength": 1702592,
      "byteOffset": 4264236,
      "byteStride": 8,
      "name": "floatBufferViews",
      "target": 34962
    },
    {
      "buffer": 0,
      "byteLength": 4657512,
      "byteOffset": 5966828,
      "byteStride": 12,
      "name": "floatBufferViews",
      "target": 34962
    }
  ],
  "buffers": [
    {
      "byteLength": 10624340,
      "uri": "scene.bin"
    }
  ],
  "materials": [
    {
      "doubleSided": true,
      "name": "Material.002",
      "pbrMetallicRoughness": {
        "baseColorFactor": [
          0.0,
          0.0,
          0.0,
          1.0
        ],
        "metallicFactor": 0.475963555442059
      }
    },
    {
      "doubleSided": true,
      "name": "Material.001",
      "pbrMetallicRoughness": {
        "baseColorFactor": [
          0.527115,
          0.527115,
          0.527115,
          1.0
        ],
        "metallicFactor": 0.0,
        "roughnessFactor": 0.8689612889436675
      }
    },
    {
      "doubleSided": true,
      "name": "black",
      "pbrMetallicRoughness": {
        "baseColorFactor": [
          0.6912592433859023,
          0.6912592433859023,
          0.6912592433859023,
          1.0
        ],
        "metallicFactor": 0.0,
        "roughnessFactor": 0.0
      }
    },
    {
      "doubleSided": true,
      "name": "etk_wheel_03a",
      "pbrMetallicRoughness": {
        "baseColorFactor": [
          0.775209617965722,
          0.775209617965722,
          0.775209617965722,
          1.0
        ],
        "metallicFactor": 0.3117988800321033,
        "roughnessFactor": 0.026030741355513805
      }
    }
  ],
  "meshes": [
    {
      "name": "Car_tire_2_Material.002_0",
      "primitives": [
        {
          "attributes": {
            "NORMAL": 1,
            "POSITION": 0,
            "TEXCOORD_0": 2
          },
          "indices": 3,
          "material": 0,
          "mode": 4
        }
      ]
    },
    {
      "name": "Car_tire_2_Material.002_0",
      "primitives": [
        {
          "attributes": {
            "NORMAL": 5,
            "POSITION": 4,
            "TEXCOORD_0": 6
          },
          "indices": 7,
          "material": 0,
          "mode": 4
        }
      ]
    },
    {
      "name": "Car_tire_2_Material.002_0",
      "primitives": [
        {
          "attributes": {
            "NORMAL": 9,
            "POSITION": 8,
            "TEXCOORD_0": 10
          },
          "indices": 11,
          "material": 0,
          "mode": 4
        }
      ]
    },
    {
      "name": "Torus_Material.001_0",
      "primitives": [
        {
          "attributes": {
            "NORMAL": 13,
            "POSITION": 12,
            "TEXCOORD_0": 14
          },
          "indices": 15,
          "material": 1,
          "mode": 4
        }
      ]
    },
    {
      "name": "w140_wheel_AMG_black_0",
      "primitives": [
        {
          "attributes": {
            "NORMAL": 17,
            "POSITION": 16,
            "TEXCOORD_0": 18,
            "TEXCOORD_1": 19
          },
          "indices": 20,
          "material": 2,
          "mode": 4
        }
      ]
    },
    {
      "name": "w140_wheel_AMG_etk_wheel_03a_0",
      "primitives": [
        {
          "attributes": {
            "NORMAL": 22,
            "POSITION": 21,
            "TEXCOORD_0": 23,
            "TEXCOORD_1": 24
          },
          "indices": 25,
          "material": 3,
          "mode": 4
        }
      ]
    }
  ],
  "nodes": [
    {
      "children": [
        1
      ],
      "matrix": [
        1.0,
        0.0,
        0.0,
        0.0,
        0.0,
        2.220446049250313e-16,
        -1.0,
        0.0,
        0.0,
        1.0,
        2.220446049250313e-16,
        0.0,
        0.0,
        0.0,
        0.0,
        1.0
      ],
      "name": "Sketchfab_model"
    },
    {
      "children": [
        2
      ],
      "matrix": [
        0.009999999776482582,
        0.0,
        0.0,
        0.0,
        0.0,
        0.0,
        0.009999999776482582,
        0.0,
        0.0,
        -0.009999999776482582,
        0.0,
        0.0,
        0.0,
        0.0,
        0.0,
        1.0
      ],
      "name": "AMG Monoblock Aero 2.fbx"
    },
    {
      "children": [
        3,
        6,
        8,
        12,
        14
      ],
      "name": "RootNode"
    },
    {
      "children": [
        4
      ],
      "matrix": [
        -29.08647719990347,
        -5.518906457566863,
        -95.51711910171437,
        0.0,
        56.63930913109449,
        79.46723428563203,
        -21.83912397841966,
        0.0,
        77.11008775993375,
        -60.45246356562044,
        -19.98834696773717,
        0.0,
        407.6245422363281,
        590.38623046875,
        -100.54539489746094,
        1.0
      ],
      "name": "Light"
    },
    {
      "children": [
        5
      ],
      "matrix": [
        1.0,
        0.0,
        0.0,
        0.0,
        0.0,
        2.220446049250313e-16,
        1.0,
        0.0,
        0.0,
        -1.0,
        2.220446049250313e-16,
        0.0,
        0.0,
        0.0,
        0.0,
        1.0
      ],
      "name": "Object_4"
    },
    {
      "name": "Object_5"
    },
    {
      "children": [
        7
      ],
      "matrix": [
        -65.15581009765468,
        -44.527143038140764,
        -61.41704928909654,
        0.0,
        -32.40135466989878,
        89.5395708958271,
        -30.542085476036902,
        0.0,
        68.59207001076176,
        1.2755314797120858e-05,
        -72.76761921184276,
        0.0,
        735.88916015625,
        495.8309326171875,
        692.5791015625,
        1.0
      ],
      "name": "Camera"
    },
    {
      "name": "Object_7"
    },
    {
      "children": [
        9,
        10,
        11
      ],
      "matrix": [
        1.3266787177002137,
        -0.01123648093481798,
        -0.49192735822575134,
        0.0,
        0.010535555981958506,
        1.4149448560879134,
        -0.00390647717943183,
        0.0,
        0.49194270319477756,
        -6.225239317091966e-08,
        1.3267201029636846,
        0.0,
        0.0018815044313669205,
        -33.0700569152832,
        -0.5934558510780334,
        1.0
      ],
      "name": "Car_tire_2"
    },
    {
      "mesh": 0,
      "name": "Car_tire_2_Material.002_0"
    },
    {
      "mesh": 1,
      "name": "Car_tire_2_Material.002_0"
    },
    {
      "mesh": 2,
      "name": "Car_tire_2_Material.002_0"
    },
    {
      "children": [
        13
      ],
      "matrix": [
        -6.475417469705115e-07,
        -14.81402778625487,
        -1.6446874735737008e-15,
        0.0,
        -6.475417477928552e-07,
        2.9604374524326614e-14,
        -14.81402778625487,
        0.0,
        14.814027786254854,
        -6.475417477928552e-07,
        -6.475417469705115e-07,
        0.0,
        -10.873637199401855,
        0.052957840263843536,
        -0.14639334380626678,
        1.0
      ],
      "name": "Torus"
    },
    {
      "mesh": 3,
      "name": "Torus_Material.001_0"
    },
    {
      "children": [
        15,
        16
      ],
      "matrix": [
        99.99999999999245,
        2.3676035690935655e-07,
        -3.894143777553012e-05,
        -0.0,
        3.893356376761231e-05,
        -2.7081827762879844,
        99.96331437167265,
        -0.0,
        8.179318107910166e-07,
        99.96331437168023,
        2.7081827762878845,
        -0.0,
        0.0,
        0.0,
        0.0,
        1.0
      ],
      "name": "w140_wheel_AMG"
    },
    {
      "mesh": 4,
      "name": "w140_wheel_AMG_black_0"
    },
    {
      "mesh": 5,
      "name": "w140_wheel_AMG_etk_wheel_03a_0"
    }
  ],
  "scene": 0,
  "scenes": [
    {
      "name": "Sketchfab_Scene",
      "nodes": [
        0
      ]
    }
  ]
}
