<svg xmlns="http://www.w3.org/2000/svg" version="1.1" xmlns:xlink="http://www.w3.org/1999/xlink" xmlns:svgjs="http://svgjs.dev/svgjs" width="2000" height="850" preserveAspectRatio="none" viewBox="0 0 2000 850"><g mask="url(&quot;#SvgjsMask1001&quot;)" fill="none"><rect width="2000" height="850" x="0" y="0" fill="rgba(27, 30, 37, 1)"></rect><path d="M815.8355494542756 47.337995565734744L637.5543867142057 62.9355762257112 653.1519673741823 241.21673896578096 831.433130114252 225.6191583058045z" fill="rgba(214, 228, 229, 0.38)" class="triangle-float2"></path><path d="M247.52298702870888 536.764301994229L360.7184377296947 642.32076745505 353.07945248952996 423.56885129324314z" fill="rgba(214, 228, 229, 0.38)" class="triangle-float1"></path><path d="M666.7850581604478 166.27199501413807L578.5078776607938 364.54578871294086 776.7816713595967 452.8229692125948 865.0588518592506 254.54917551379197z" fill="rgba(214, 228, 229, 0.38)" class="triangle-float3"></path><path d="M1475.4219533399612-84.21372681530502L1450.9902834779116 89.62663718840949 1624.830647481626 114.05830705045909 1649.2623173436757-59.78205695325542z" fill="rgba(214, 228, 229, 0.38)" class="triangle-float2"></path><path d="M1673.9561037585884 307.14131792387525L1515.7447862056604 323.7699974656508 1690.584783300364 465.3526354768032z" fill="rgba(214, 228, 229, 0.38)" class="triangle-float1"></path><path d="M1347.365,355.762C1395.695,356.545,1437.238,326.149,1462.727,285.08C1489.918,241.269,1503.994,187.531,1480.153,141.811C1454.717,93.033,1402.373,64.518,1347.365,63.853C1291.163,63.173,1234.081,88.284,1208.895,138.531C1185.537,185.133,1210.281,237.488,1238.301,281.445C1263.645,321.205,1300.22,354.998,1347.365,355.762" fill="rgba(214, 228, 229, 0.38)" class="triangle-float3"></path><path d="M1916.4207268152422 636.1922820609157L1768.7499584883524 585.3451588502667 1717.9028352777034 733.0159271771564 1865.5736036045932 783.8630503878054z" fill="rgba(214, 228, 229, 0.38)" class="triangle-float3"></path><path d="M295.801,623.245C321.903,622.274,346.994,610.302,359.506,587.374C371.561,565.283,365.615,539.334,353.685,517.175C340.936,493.495,322.689,469.617,295.801,469.05C268.234,468.469,247.495,490.866,233.529,514.641C219.33,538.813,209.374,568.122,223.319,592.442C237.315,616.851,267.683,624.291,295.801,623.245" fill="rgba(214, 228, 229, 0.38)" class="triangle-float2"></path></g><defs><mask id="SvgjsMask1001"><rect width="2000" height="850" fill="#ffffff"></rect></mask><style>
                @keyframes float1 {
                    0%{transform: translate(0, 0)}
                    50%{transform: translate(-10px, 0)}
                    100%{transform: translate(0, 0)}
                }

                .triangle-float1 {
                    animation: float1 5s infinite;
                }

                @keyframes float2 {
                    0%{transform: translate(0, 0)}
                    50%{transform: translate(-5px, -5px)}
                    100%{transform: translate(0, 0)}
                }

                .triangle-float2 {
                    animation: float2 4s infinite;
                }

                @keyframes float3 {
                    0%{transform: translate(0, 0)}
                    50%{transform: translate(0, -10px)}
                    100%{transform: translate(0, 0)}
                }

                .triangle-float3 {
                    animation: float3 6s infinite;
                }
            </style></defs></svg>