<svg id="visual" viewBox="0 0 2000 300" width="2000" height="300" xmlns="http://www.w3.org/2000/svg" xmlns:xlink="http://www.w3.org/1999/xlink" version="1.1">

<path d="M0 223L47.7 223.7C95.3 224.3 190.7 225.7 285.8 231.7C381 237.7 476 248.3 571.2 247C666.3 245.7 761.7 232.3 857 221.5C952.3 210.7 1047.7 202.3 1143 207.5C1238.3 212.7 1333.7 231.3 1428.8 233.8C1524 236.3 1619 222.7 1714.2 218.2C1809.3 213.7 1904.7 218.3 1952.3 220.7L2000 223L2000 301L1952.3 301C1904.7 301 1809.3 301 1714.2 301C1619 301 1524 301 1428.8 301C1333.7 301 1238.3 301 1143 301C1047.7 301 952.3 301 857 301C761.7 301 666.3 301 571.2 301C476 301 381 301 285.8 301C190.7 301 95.3 301 47.7 301L0 301Z" fill="#EFF5F5" stroke-linecap="round" stroke-linejoin="miter"></path>

</svg>