<svg xmlns="http://www.w3.org/2000/svg" version="1.1" xmlns:xlink="http://www.w3.org/1999/xlink" xmlns:svgjs="http://svgjs.dev/svgjs" width="2500" height="1000" preserveAspectRatio="none" viewBox="0 0 2500 1000"><g mask="url(&quot;#SvgjsMask1001&quot;)" fill="none"><rect width="2500" height="1000" x="0" y="0" fill="rgba(34, 40, 49, 1)"></rect><path d="M1241.1619488473561 115.41977627239866L1130.86529009496 322.8576214273031 1338.3031352498645 433.1542801796992 1448.5997940022605 225.71643502479475z" fill="rgba(121, 126, 128, 0.35)" class="triangle-float3"></path><path d="M1630.836,953.98C1717.474,954.914,1806.466,926.167,1850.72,851.678C1895.785,775.825,1881.791,681.718,1838.144,605.04C1793.968,527.431,1720.132,466.298,1630.836,465.388C1540.149,464.464,1460.093,521.443,1416.081,600.74C1373.377,677.678,1373.304,771.834,1419.016,847.024C1463.056,919.463,1546.065,953.066,1630.836,953.98" fill="rgba(121, 126, 128, 0.35)" class="triangle-float3"></path><path d="M2235.776,869.099C2267.6,869.582,2302.235,862.077,2317.79,834.309C2333.11,806.961,2319.127,775.03,2303.787,747.693C2287.984,719.532,2268.068,688.314,2235.776,688.16C2203.331,688.006,2182.082,718.508,2166.635,747.04C2152.128,773.835,2142.945,805.372,2157.963,831.884C2173.151,858.697,2204.964,868.632,2235.776,869.099" fill="rgba(121, 126, 128, 0.35)" class="triangle-float3"></path><path d="M1543.4025662567863 16.07365359104156L1580.2528037315747 189.44039035636183 1753.6195404968948 152.59015288157343 1716.7693030221064-20.776583883746834z" fill="rgba(121, 126, 128, 0.35)" class="triangle-float3"></path><path d="M353.432,918.467C405.451,917.587,458.739,904.329,487.116,860.723C518.01,813.249,520.295,752.547,494.081,702.337C465.768,648.106,414.605,605.386,353.432,604.664C291.188,603.929,236.646,644.26,206.912,698.947C178.497,751.208,178.652,815.906,211.676,865.383C241.698,910.363,299.361,919.382,353.432,918.467" fill="rgba(121, 126, 128, 0.35)" class="triangle-float1"></path></g><defs><mask id="SvgjsMask1001"><rect width="2500" height="1000" fill="#ffffff"></rect></mask><style>
                @keyframes float1 {
                    0%{transform: translate(0, 0)}
                    50%{transform: translate(-10px, 0)}
                    100%{transform: translate(0, 0)}
                }

                .triangle-float1 {
                    animation: float1 5s infinite;
                }

                @keyframes float2 {
                    0%{transform: translate(0, 0)}
                    50%{transform: translate(-5px, -5px)}
                    100%{transform: translate(0, 0)}
                }

                .triangle-float2 {
                    animation: float2 4s infinite;
                }

                @keyframes float3 {
                    0%{transform: translate(0, 0)}
                    50%{transform: translate(0, -10px)}
                    100%{transform: translate(0, 0)}
                }

                .triangle-float3 {
                    animation: float3 6s infinite;
                }
            </style></defs></svg>