<svg xmlns="http://www.w3.org/2000/svg" version="1.1" xmlns:xlink="http://www.w3.org/1999/xlink" xmlns:svgjs="http://svgjs.dev/svgjs" width="2500" height="1000" preserveAspectRatio="none" viewBox="0 0 2500 1000"><g mask="url(&quot;#SvgjsMask1144&quot;)" fill="none"><rect width="2500" height="1000" x="0" y="0" fill="rgba(73, 113, 116, 1)"></rect><path d="M385.2 914.2 a307.92 307.92 0 1 0 615.84 0 a307.92 307.92 0 1 0 -615.84 0z" fill="rgba(214, 228, 229, 0.38)" class="triangle-float2"></path><path d="M1109.5 956.27 a196.44 196.44 0 1 0 392.88 0 a196.44 196.44 0 1 0 -392.88 0z" fill="rgba(214, 228, 229, 0.38)" class="triangle-float2"></path><path d="M2265.446,529.039C2357.059,533.272,2461.128,539.889,2514.023,464.969C2573.03,381.393,2564.241,267.077,2512.858,178.609C2461.705,90.536,2367.017,29.45,2265.446,36.981C2173.331,43.811,2117.003,129.193,2074.35,211.123C2035.829,285.115,2010.729,372.205,2053.705,443.702C2095.724,513.606,2183.972,525.275,2265.446,529.039" fill="rgba(214, 228, 229, 0.38)" class="triangle-float3"></path><path d="M-67.75 58.79 a289.16 289.16 0 1 0 578.32 0 a289.16 289.16 0 1 0 -578.32 0z" fill="rgba(214, 228, 229, 0.38)" class="triangle-float3"></path><path d="M1213.476,679.832C1278.915,676.379,1329.102,630.155,1363.593,574.437C1400.565,514.711,1433.044,442.105,1398.493,380.947C1363.59,319.166,1284.435,308.52,1213.476,308.719C1142.977,308.917,1068.119,322.516,1030.25,381.981C989.966,445.238,993.862,527.997,1033.156,591.874C1070.712,652.925,1141.898,683.609,1213.476,679.832" fill="rgba(214, 228, 229, 0.38)" class="triangle-float2"></path></g><defs><mask id="SvgjsMask1144"><rect width="2500" height="1000" fill="#ffffff"></rect></mask><style>
                @keyframes float1 {
                    0%{transform: translate(0, 0)}
                    50%{transform: translate(-10px, 0)}
                    100%{transform: translate(0, 0)}
                }

                .triangle-float1 {
                    animation: float1 5s infinite;
                }

                @keyframes float2 {
                    0%{transform: translate(0, 0)}
                    50%{transform: translate(-5px, -5px)}
                    100%{transform: translate(0, 0)}
                }

                .triangle-float2 {
                    animation: float2 4s infinite;
                }

                @keyframes float3 {
                    0%{transform: translate(0, 0)}
                    50%{transform: translate(0, -10px)}
                    100%{transform: translate(0, 0)}
                }

                .triangle-float3 {
                    animation: float3 6s infinite;
                }
            </style></defs></svg>