<svg xmlns="http://www.w3.org/2000/svg" version="1.1" xmlns:xlink="http://www.w3.org/1999/xlink" xmlns:svgjs="http://svgjs.dev/svgjs" width="2500" height="1000" preserveAspectRatio="none" viewBox="0 0 2500 1000"><g mask="url(&quot;#SvgjsMask1002&quot;)" fill="none"><rect width="2500" height="1000" x="0" y="0" fill="rgba(73, 113, 116, 1)"></rect><path d="M152.136,964.309C202.586,965.189,256.346,947.683,279.231,902.713C300.769,860.389,274.262,813.64,249.401,773.178C226.162,735.356,196.42,698.937,152.136,695.862C102.777,692.435,53.443,715.224,28.279,757.825C2.724,801.089,6.65,855.318,32.497,898.408C57.599,940.256,103.344,963.458,152.136,964.309" fill="rgba(121, 126, 128, 0.35)" class="triangle-float1"></path><path d="M2261.273,680.146C2316.089,679.828,2357.365,636.728,2384.979,589.375C2412.858,541.568,2430.926,483.903,2403.866,435.628C2376.348,386.537,2317.493,366.139,2261.273,368.688C2209.465,371.037,2165.066,402.526,2139.445,447.616C2114.157,492.121,2111.298,545.484,2135.054,590.826C2160.692,639.76,2206.031,680.467,2261.273,680.146" fill="rgba(121, 126, 128, 0.35)" class="triangle-float2"></path><path d="M252.8478305657235 344.93178109258423L229.3770145025932 511.93531506783063 396.3805484778396 535.406131130961 419.85136454096994 368.40259715571455z" fill="rgba(121, 126, 128, 0.35)" class="triangle-float1"></path><path d="M2447.318890176465 342.83803841846475L2359.7397258320298 136.51445690075994 2153.4161443143253 224.0936212451952 2240.99530865876 430.41720276290005z" fill="rgba(121, 126, 128, 0.35)" class="triangle-float2"></path></g><defs><mask id="SvgjsMask1002"><rect width="2500" height="1000" fill="#ffffff"></rect></mask><style>
                @keyframes float1 {
                    0%{transform: translate(0, 0)}
                    50%{transform: translate(-10px, 0)}
                    100%{transform: translate(0, 0)}
                }

                .triangle-float1 {
                    animation: float1 5s infinite;
                }

                @keyframes float2 {
                    0%{transform: translate(0, 0)}
                    50%{transform: translate(-5px, -5px)}
                    100%{transform: translate(0, 0)}
                }

                .triangle-float2 {
                    animation: float2 4s infinite;
                }

                @keyframes float3 {
                    0%{transform: translate(0, 0)}
                    50%{transform: translate(0, -10px)}
                    100%{transform: translate(0, 0)}
                }

                .triangle-float3 {
                    animation: float3 6s infinite;
                }
            </style></defs></svg>